<svg width="1024" height="1024" viewBox="0 0 1024 1024" fill="none" xmlns="http://www.w3.org/2000/svg">
<path d="M512 899.605C726.069 899.605 899.606 726.068 899.606 512C899.606 297.931 726.069 124.394 512 124.394C297.931 124.394 124.394 297.931 124.394 512C124.394 726.068 297.931 899.605 512 899.605Z" fill="#E4E4E7"/>
<path d="M316.785 308.899C310.206 311.828 305.167 320.556 295.088 338.012L213.511 479.309C203.737 496.237 198.703 504.957 199.093 512.001C198.703 519.045 203.737 527.765 213.511 544.693L295.088 685.99C305.167 703.446 310.206 712.174 316.785 715.103C322.523 717.658 329.076 717.658 334.815 715.103C341.394 712.174 346.433 703.446 356.511 685.99L438.089 544.693C447.863 527.765 452.897 519.045 452.506 512.001C452.897 504.957 447.863 496.237 438.089 479.309L356.511 338.012C346.433 320.556 341.394 311.828 334.815 308.899C329.076 306.344 322.523 306.344 316.785 308.899Z" fill="#52525B"/>
<path d="M689.185 308.899C682.606 311.828 677.566 320.556 667.488 338.012L585.91 479.309C576.137 496.237 571.102 504.957 571.493 512.001C571.102 519.045 576.137 527.765 585.91 544.693L667.488 685.99C677.566 703.446 682.606 712.174 689.185 715.103C694.923 717.658 701.476 717.658 707.215 715.103C713.794 712.174 718.833 703.446 728.911 685.99L810.489 544.693C820.262 527.765 825.297 519.045 824.906 512.001C825.297 504.957 820.262 496.237 810.489 479.309L728.911 338.012C718.833 320.556 713.794 311.828 707.215 308.899C701.476 306.344 694.923 306.344 689.185 308.899Z" fill="#52525B"/>
<path d="M498.753 213.582C489.087 217.886 481.683 230.71 466.875 256.359L347.013 463.965C332.653 488.838 325.256 501.65 325.83 511.999C325.256 522.349 332.653 535.161 347.013 560.034L466.875 767.64C481.683 793.288 489.087 806.113 498.753 810.416C507.185 814.17 516.813 814.17 525.245 810.416C534.911 806.113 542.315 793.288 557.123 767.64L676.985 560.034C691.345 535.161 698.742 522.348 698.168 511.999C698.742 501.65 691.345 488.837 676.985 463.965L557.123 256.359C542.315 230.71 534.911 217.886 525.245 213.582C516.813 209.828 507.185 209.828 498.753 213.582Z" fill="#27272A"/>
</svg>
